<svg xmlns="http://www.w3.org/2000/svg" width="24.5" height="24.5" viewBox="0 0 24.5 24.5"><g id="Layer_2" data-name="Layer 2"><g id="Layer_1-2" data-name="Layer 1"><g id="f27ec5c9-e2ac-4042-b649-a5bb0b8275fd"><path d="M10.34,8.82v1a.57.57,0,0,1-.56.56H8.59v1.19a.55.55,0,0,1-.55.55H7a.56.56,0,0,1-.56-.55V10.34H5.33a.56.56,0,0,1-.55-.56v-1a.55.55,0,0,1,.55-.55H6.52V7.08a.57.57,0,0,1,.56-.56H8a.55.55,0,0,1,.55.55h0V8.27H9.78a.55.55,0,0,1,.56.54Z" style="fill:#fff"/><path d="M16.14,9.49a1.1,1.1,0,0,1-1,1.1H15a1.1,1.1,0,1,1,0-2.2h0a1.12,1.12,0,0,1,1.14,1.1Z" style="fill:#fff"/><path d="M16,7.43a1.11,1.11,0,0,1,1.11-1.1,1.09,1.09,0,0,1,.75.3,1.11,1.11,0,0,1,0,1.57A1.1,1.1,0,0,1,16,7.43Z" style="fill:#fff"/><path d="M17.85,10.74a1.12,1.12,0,0,1,0,1.58l0,0a1.06,1.06,0,0,1-.74.29,1.1,1.1,0,1,1,0-2.2h0A1.08,1.08,0,0,1,17.85,10.74Z" style="fill:#fff"/><path d="M20.25,9.49a1.09,1.09,0,0,1-1.08,1.1h0a1.1,1.1,0,0,1,0-2.2h0a1.09,1.09,0,0,1,1.09,1.09Z" style="fill:#fff"/><path d="M12.25,0A12.25,12.25,0,1,0,24.5,12.25,12.24,12.24,0,0,0,12.25,0Zm7.69,17.83c-1.33.27-2.79-1.09-3.78-3.28H8.33c-1,2.19-2.45,3.55-3.77,3.28-1.8-.37-2.66-3.63-1.9-7.27.67-3.24,2.38-5.71,4-5.93h11c1.69.1,3.5,2.61,4.18,6C22.59,14.2,21.74,17.46,19.94,17.83Z" style="fill:#fff"/></g></g></g></svg>